<svg width="48" height="48" viewBox="0 0 48 48" fill="none" xmlns="http://www.w3.org/2000/svg">
<rect width="48" height="48" rx="24" fill="#EA4335"/>
<path d="M8.01003 24.021C7.69024 15.6014 15.0651 7.82061 23.4932 7.71966C27.7888 7.35328 31.9679 9.0214 35.2187 11.7421C33.8852 13.2083 32.5284 14.6575 31.0791 16.0143C28.2173 14.2756 24.7717 12.9506 21.427 14.1274C16.0322 15.6635 12.7652 22.0331 14.7616 27.3107C16.4148 32.8226 23.1191 35.8475 28.3733 33.532C31.094 32.5578 32.8877 30.0476 33.6749 27.3502C30.5568 27.2881 27.438 27.3269 24.3199 27.2408C24.3121 25.3856 24.3043 23.5375 24.3121 21.6823C29.512 21.6745 34.7196 21.659 39.9273 21.7056C40.2471 26.2511 39.5764 31.1156 36.6214 34.7639C32.575 39.9715 25.0992 41.4999 19.0176 39.4569C12.5633 37.337 7.86955 30.8347 8.01003 24.021Z" fill="white"/>
</svg>
