<svg width="480" height="96" viewBox="0 0 480 96" fill="none" xmlns="http://www.w3.org/2000/svg">
<path d="M50.496 33.776C55.0187 33.776 58.56 35.1413 61.12 37.872C63.7227 40.6027 65.024 44.336 65.024 49.072V70H52.48V50.736C52.48 48.816 51.9467 47.3227 50.88 46.256C49.8133 45.1893 48.3627 44.656 46.528 44.656C44.6933 44.656 43.2427 45.1893 42.176 46.256C41.1093 47.3227 40.576 48.816 40.576 50.736V70H28.032V50.736C28.032 48.816 27.4987 47.3227 26.432 46.256C25.408 45.1893 23.9787 44.656 22.144 44.656C20.2667 44.656 18.7947 45.1893 17.728 46.256C16.6613 47.3227 16.128 48.816 16.128 50.736V70H3.584V34.096H16.128V38.832C17.2373 37.296 18.6667 36.08 20.416 35.184C22.208 34.2453 24.256 33.776 26.56 33.776C29.2053 33.776 31.552 34.352 33.6 35.504C35.6907 36.656 37.3333 38.2773 38.528 40.368C39.808 38.4053 41.4933 36.8267 43.584 35.632C45.6747 34.3947 47.9787 33.776 50.496 33.776ZM69.8485 52.016C69.8485 48.304 70.5098 45.0613 71.8325 42.288C73.1978 39.5147 75.0325 37.3813 77.3365 35.888C79.6832 34.3947 82.2858 33.648 85.1445 33.648C87.6192 33.648 89.7525 34.1387 91.5445 35.12C93.3365 36.1013 94.7232 37.424 95.7045 39.088V34.096H108.249V70H95.7045V65.008C94.7232 66.672 93.3152 67.9947 91.4805 68.976C89.6885 69.9573 87.5765 70.448 85.1445 70.448C82.2858 70.448 79.6832 69.7013 77.3365 68.208C75.0325 66.7147 73.1978 64.5813 71.8325 61.808C70.5098 58.992 69.8485 55.728 69.8485 52.016ZM95.7045 52.016C95.7045 49.712 95.0645 47.8987 93.7845 46.576C92.5472 45.2533 91.0112 44.592 89.1765 44.592C87.2992 44.592 85.7418 45.2533 84.5045 46.576C83.2672 47.856 82.6485 49.6693 82.6485 52.016C82.6485 54.32 83.2672 56.1547 84.5045 57.52C85.7418 58.8427 87.2992 59.504 89.1765 59.504C91.0112 59.504 92.5472 58.8427 93.7845 57.52C95.0645 56.1973 95.7045 54.3627 95.7045 52.016ZM130.693 70.448C127.45 70.448 124.549 69.9147 121.989 68.848C119.471 67.7387 117.466 66.2453 115.973 64.368C114.522 62.448 113.711 60.2933 113.541 57.904H125.701C125.871 59.056 126.405 59.952 127.301 60.592C128.197 61.232 129.306 61.552 130.628 61.552C131.653 61.552 132.463 61.3387 133.061 60.912C133.658 60.4853 133.957 59.9307 133.957 59.248C133.957 58.352 133.466 57.6907 132.485 57.264C131.503 56.8373 129.882 56.368 127.621 55.856C125.061 55.344 122.927 54.768 121.22 54.128C119.514 53.488 118.021 52.4427 116.741 50.992C115.503 49.5413 114.885 47.5787 114.885 45.104C114.885 42.9707 115.461 41.0507 116.613 39.344C117.765 37.5947 119.45 36.208 121.669 35.184C123.93 34.16 126.639 33.648 129.797 33.648C134.49 33.648 138.181 34.8 140.869 37.104C143.557 39.408 145.114 42.4373 145.541 46.192H134.213C133.999 45.04 133.487 44.1653 132.677 43.568C131.909 42.928 130.863 42.608 129.541 42.608C128.517 42.608 127.727 42.8 127.173 43.184C126.661 43.568 126.405 44.1013 126.405 44.784C126.405 45.6373 126.895 46.2987 127.877 46.768C128.858 47.1947 130.437 47.6427 132.613 48.112C135.215 48.6667 137.37 49.2853 139.077 49.968C140.826 50.6507 142.341 51.76 143.621 53.296C144.943 54.7893 145.604 56.8373 145.604 59.44C145.604 61.5307 144.986 63.408 143.749 65.072C142.554 66.736 140.826 68.0587 138.565 69.04C136.346 69.9787 133.722 70.448 130.693 70.448ZM172.956 59.312V70H167.516C158.342 70 153.756 65.456 153.756 56.368V44.528H149.34V34.096H153.756V25.392H166.364V34.096H172.892V44.528H166.364V56.56C166.364 57.5413 166.577 58.2453 167.003 58.672C167.473 59.0987 168.241 59.312 169.308 59.312H172.956ZM213.013 51.632C213.013 52.6133 212.949 53.5947 212.821 54.576H189.077C189.205 56.5387 189.738 58.0107 190.677 58.992C191.658 59.9307 192.896 60.4 194.389 60.4C196.48 60.4 197.973 59.4613 198.869 57.584H212.245C211.69 60.0587 210.602 62.2773 208.981 64.24C207.402 66.16 205.397 67.6747 202.965 68.784C200.533 69.8933 197.845 70.448 194.901 70.448C191.36 70.448 188.202 69.7013 185.429 68.208C182.698 66.7147 180.544 64.5813 178.965 61.808C177.429 59.0347 176.661 55.7707 176.661 52.016C176.661 48.2613 177.429 45.0187 178.965 42.288C180.501 39.5147 182.634 37.3813 185.365 35.888C188.138 34.3947 191.317 33.648 194.901 33.648C198.442 33.648 201.578 34.3733 204.309 35.824C207.04 37.2747 209.173 39.3653 210.709 42.096C212.245 44.784 213.013 47.9627 213.013 51.632ZM200.213 48.496C200.213 46.96 199.701 45.7653 198.677 44.912C197.653 44.016 196.373 43.568 194.837 43.568C193.301 43.568 192.042 43.9947 191.061 44.848C190.08 45.6587 189.44 46.8747 189.141 48.496H200.213ZM230.691 40.432C232.099 38.384 233.805 36.7627 235.811 35.568C237.816 34.3733 239.971 33.776 242.275 33.776V47.152H238.755C236.024 47.152 233.997 47.6853 232.675 48.752C231.352 49.8187 230.691 51.6747 230.691 54.32V70H218.147V34.096H230.691V40.432ZM270.388 33.776C274.484 33.776 277.726 35.1627 280.116 37.936C282.548 40.6667 283.764 44.3787 283.764 49.072V70H271.22V50.736C271.22 48.688 270.686 47.088 269.62 45.936C268.553 44.7413 267.124 44.144 265.332 44.144C263.454 44.144 261.982 44.7413 260.916 45.936C259.849 47.088 259.316 48.688 259.316 50.736V70H246.772V22.64H259.316V39.216C260.425 37.5947 261.918 36.2933 263.796 35.312C265.716 34.288 267.913 33.776 270.388 33.776ZM327.383 34.096V70H314.775V64.88C313.708 66.5013 312.236 67.824 310.359 68.848C308.481 69.8293 306.327 70.32 303.895 70.32C299.713 70.32 296.407 68.9547 293.975 66.224C291.585 63.4507 290.391 59.696 290.391 54.96V34.096H302.871V53.36C302.871 55.408 303.404 57.0293 304.471 58.224C305.58 59.376 307.031 59.952 308.823 59.952C310.657 59.952 312.108 59.376 313.175 58.224C314.241 57.0293 314.775 55.408 314.775 53.36V34.096H327.383ZM347.066 39.088C348.047 37.3813 349.434 36.0587 351.226 35.12C353.018 34.1387 355.13 33.648 357.562 33.648C360.42 33.648 363.002 34.3947 365.306 35.888C367.652 37.3813 369.487 39.5147 370.81 42.288C372.175 45.0613 372.858 48.304 372.858 52.016C372.858 55.728 372.175 58.992 370.81 61.808C369.487 64.5813 367.652 66.7147 365.306 68.208C363.002 69.7013 360.42 70.448 357.562 70.448C355.13 70.448 353.018 69.9787 351.226 69.04C349.434 68.0587 348.047 66.7147 347.066 65.008V70H334.522V22.64H347.066V39.088ZM360.122 52.016C360.122 49.6693 359.482 47.856 358.202 46.576C356.964 45.2533 355.428 44.592 353.594 44.592C351.759 44.592 350.202 45.2533 348.922 46.576C347.684 47.8987 347.066 49.712 347.066 52.016C347.066 54.3627 347.684 56.1973 348.922 57.52C350.202 58.8427 351.759 59.504 353.594 59.504C355.428 59.504 356.964 58.8427 358.202 57.52C359.482 56.1547 360.122 54.32 360.122 52.016Z" fill="white"/>
<path d="M391.832 33.648C394.264 33.648 396.376 34.1387 398.168 35.12C400.003 36.1013 401.411 37.424 402.392 39.088V34.096H414.936V69.616C414.936 72.9867 414.296 76.016 413.016 78.704C411.736 81.4347 409.731 83.6107 407 85.232C404.312 86.8533 400.899 87.664 396.76 87.664C391.213 87.664 386.776 86.3627 383.448 83.76C380.12 81.1573 378.221 77.616 377.752 73.136H390.104C390.36 74.288 391 75.184 392.024 75.824C393.048 76.464 394.371 76.784 395.992 76.784C400.259 76.784 402.392 74.3947 402.392 69.616V65.008C401.411 66.672 400.003 67.9947 398.168 68.976C396.376 69.9573 394.264 70.448 391.832 70.448C388.973 70.448 386.371 69.7013 384.024 68.208C381.72 66.7147 379.885 64.5813 378.52 61.808C377.197 58.992 376.536 55.728 376.536 52.016C376.536 48.304 377.197 45.0613 378.52 42.288C379.885 39.5147 381.72 37.3813 384.024 35.888C386.371 34.3947 388.973 33.648 391.832 33.648ZM402.392 52.016C402.392 49.712 401.752 47.8987 400.472 46.576C399.235 45.2533 397.699 44.592 395.864 44.592C393.987 44.592 392.429 45.2533 391.192 46.576C389.955 47.856 389.336 49.6693 389.336 52.016C389.336 54.32 389.955 56.1547 391.192 57.52C392.429 58.8427 393.987 59.504 395.864 59.504C397.699 59.504 399.235 58.8427 400.472 57.52C401.752 56.1973 402.392 54.3627 402.392 52.016ZM438.788 70.448C435.204 70.448 431.983 69.7013 429.124 68.208C426.308 66.7147 424.089 64.5813 422.468 61.808C420.847 59.0347 420.036 55.7707 420.036 52.016C420.036 48.304 420.847 45.0613 422.468 42.288C424.132 39.5147 426.372 37.3813 429.188 35.888C432.047 34.3947 435.268 33.648 438.852 33.648C442.436 33.648 445.636 34.3947 448.452 35.888C451.311 37.3813 453.551 39.5147 455.172 42.288C456.836 45.0613 457.668 48.304 457.668 52.016C457.668 55.728 456.836 58.992 455.172 61.808C453.551 64.5813 451.311 66.7147 448.452 68.208C445.593 69.7013 442.372 70.448 438.788 70.448ZM438.788 59.568C440.537 59.568 441.988 58.928 443.14 57.648C444.335 56.3253 444.932 54.448 444.932 52.016C444.932 49.584 444.335 47.728 443.14 46.448C441.988 45.168 440.559 44.528 438.852 44.528C437.145 44.528 435.716 45.168 434.564 46.448C433.412 47.728 432.836 49.584 432.836 52.016C432.836 54.4907 433.391 56.368 434.5 57.648C435.609 58.928 437.039 59.568 438.788 59.568Z" fill="#33A9E0"/>
<circle cx="470" cy="24" r="10" fill="#33A9E0"/>
</svg>
