<svg width="20" height="20" viewBox="0 0 20 20" fill="none" xmlns="http://www.w3.org/2000/svg">
<path d="M7.76404 3.29519C8.46642 3.10724 9.2123 3 9.99998 3C13.7574 3 16.564 5.4404 18.2326 7.43934C19.4848 8.93936 19.4846 11.0609 18.2324 12.5609C18.0406 12.7907 17.8337 13.0264 17.612 13.2635M10.5 7.04148C11.7563 7.25224 12.7478 8.24375 12.9585 9.5M1 1L19 19M9.50001 12.9585C8.41583 12.7766 7.52884 12.0132 7.17072 11M2.34914 6.77822C2.14213 7.00124 1.94821 7.22274 1.76762 7.43907C0.515422 8.93906 0.515227 11.0606 1.76739 12.5607C3.43604 14.5596 6.24263 17 10 17C10.8021 17 11.5608 16.8888 12.2744 16.6944" stroke="#525252" stroke-width="1.5" stroke-linecap="round" stroke-linejoin="round"/>
</svg>
