<svg width="20" height="16" viewBox="0 0 20 16" fill="none" xmlns="http://www.w3.org/2000/svg">
<path d="M9.99988 1C6.24249 1 3.4359 3.4404 1.76725 5.43934C0.515084 6.93936 0.515084 9.06064 1.76725 10.5607C3.4359 12.5596 6.24249 15 9.99988 15C13.7573 15 16.5639 12.5596 18.2325 10.5607C19.4847 9.06064 19.4847 6.93936 18.2325 5.43934C16.5639 3.4404 13.7573 1 9.99988 1Z" stroke="#525252" stroke-width="1.5" stroke-linecap="round" stroke-linejoin="round"/>
<path d="M9.99988 11C11.6567 11 12.9999 9.65685 12.9999 8C12.9999 6.34315 11.6567 5 9.99988 5C8.34302 5 6.99988 6.34315 6.99988 8C6.99988 9.65685 8.34302 11 9.99988 11Z" stroke="#525252" stroke-width="1.5" stroke-linecap="round" stroke-linejoin="round"/>
</svg>
