<svg width="48" height="48" viewBox="0 0 48 48" fill="none" xmlns="http://www.w3.org/2000/svg">
<rect width="48" height="48" rx="24" fill="#5181B8"/>
<path fill-rule="evenodd" clip-rule="evenodd" d="M39.2658 16.5348C39.4884 15.7932 39.2658 15.248 38.2071 15.248H34.7062C33.816 15.248 33.4059 15.7189 33.1834 16.2383C33.1834 16.2383 31.403 20.5775 28.8809 23.3962C28.0649 24.2121 27.6941 24.4715 27.249 24.4715C27.0264 24.4715 26.7044 24.2121 26.7044 23.4705V16.5348C26.7044 15.6446 26.4461 15.248 25.7041 15.248H20.2028C19.6467 15.248 19.3121 15.6611 19.3121 16.0527C19.3121 16.8967 20.5729 17.0912 20.703 19.4648V24.6202C20.703 25.7505 20.4989 25.9555 20.0538 25.9555C18.867 25.9555 15.9804 21.5965 14.268 16.6091C13.9324 15.6396 13.5958 15.248 12.7011 15.248H9.20028C8.20005 15.248 8 15.7189 8 16.2383C8 17.1655 9.18703 21.7646 13.5263 27.847C16.4195 32.0005 20.4949 34.2525 24.2038 34.2525C26.4293 34.2525 26.7044 33.7524 26.7044 32.8909V29.7514C26.7044 28.7512 26.9152 28.5517 27.6196 28.5517C28.1392 28.5517 29.0292 28.8112 31.1064 30.8139C33.4799 33.1872 33.871 34.2525 35.2064 34.2525H38.7072C39.7074 34.2525 40.2075 33.7524 39.919 32.7654C39.6034 31.7817 38.4701 30.3548 36.9663 28.6629C36.1503 27.6985 34.9263 26.66 34.5557 26.1408C34.0363 25.4732 34.1846 25.1766 34.5557 24.5835C34.5557 24.5835 38.8207 18.5751 39.2658 16.5351V16.5348Z" fill="white"/>
</svg>
